# This file uses centimeters as units for non-parametric coordinates.

mtllib Rock_6.mtl
g default
v -0.385460 -0.388975 -0.488856
v -0.476671 -0.430834 -0.350074
v -0.615444 -0.255164 -0.042028
v -0.682713 0.000356 0.115730
v -0.697403 0.236062 0.128586
v -0.678587 0.239701 -0.117616
v -0.536470 0.221114 -0.386239
v -0.469614 0.001384 -0.503079
v -0.515802 0.369529 -0.014082
v -0.425964 0.314479 -0.309527
v -0.287947 0.076343 -0.489302
v -0.169048 -0.292432 -0.447720
v -0.376297 -0.466897 -0.165062
v -0.480793 -0.302893 0.100111
v -0.487482 -0.021591 0.357812
v -0.570873 0.293277 0.271200
v 0.173456 -0.141742 -0.325717
v -0.032873 -0.320200 0.067904
v 0.362547 -0.141116 0.212599
v 0.522627 -0.054471 -0.116102
v 0.697403 0.037031 0.031909
v 0.652529 0.036293 0.224274
v 0.613722 0.237437 0.014286
v 0.511749 0.231539 0.256968
v -0.299433 0.455319 -0.044604
v -0.319155 0.236614 0.408320
v 0.106491 0.370696 0.375567
v 0.091042 0.466897 -0.014288
v 0.416178 0.429231 0.045886
v 0.348408 0.374935 0.286384
v -0.300619 -0.022568 0.446879
v -0.240358 -0.275676 0.259786
v 0.181561 -0.056921 0.399071
v 0.084629 0.091307 0.503079
v -0.055513 0.431921 -0.250814
v 0.106400 0.206196 -0.477783
v 0.487978 0.277109 -0.316193
v 0.398785 0.383603 -0.177455
v 0.381701 0.036448 0.372043
v 0.368443 0.172961 0.447211
v 0.210905 0.369181 0.243657
v 0.252142 0.466588 0.025506
v 0.147877 0.439879 -0.208506
v 0.261209 0.248072 -0.409033
v 0.339577 -0.068911 -0.272896
v 0.183722 -0.230269 0.149363
v 0.036654 -0.186890 0.318192
v -0.112171 0.044365 0.500137
v -0.051746 0.307230 0.400994
v -0.082809 0.466666 0.087956
v -0.572420 -0.125146 -0.283667
v -0.669964 0.088158 -0.111365
v -0.682987 0.249676 -0.001372
v 0.609230 0.126255 0.225518
v 0.669758 0.153065 0.048231
v 0.537527 0.140038 -0.264530
v 0.355444 0.083708 -0.362018
v 0.200947 0.048214 -0.423777
v -0.240944 -0.123751 -0.502332
v -0.461369 -0.177253 -0.470625
v -0.505613 -0.229210 -0.356550
vt 0.342942 0.942406
vt 0.320980 0.930049
vt 0.328150 0.920265
vt 0.347782 0.928194
vt 0.364437 0.959392
vt 0.366666 0.932676
vt 0.434556 0.791532
vt 0.432444 0.825180
vt 0.392462 0.828126
vt 0.409259 0.777811
vt 0.307215 0.857068
vt 0.281771 0.829820
vt 0.334129 0.823722
vt 0.337055 0.855121
vt 0.338792 0.874798
vt 0.311294 0.878244
vt 0.459268 0.753506
vt 0.448903 0.733970
vt 0.275770 0.890734
vt 0.252720 0.878521
vt 0.296793 0.895888
vt 0.496195 0.729874
vt 0.498815 0.761485
vt 0.288075 0.925123
vt 0.252934 0.928518
vt 0.305036 0.925685
vt 0.337919 0.958551
vt 0.314056 0.965290
vt 0.304563 0.998008
vt 0.363083 0.987388
vt 0.471851 0.781209
vt 0.452013 0.801489
vt 0.496104 0.778174
vt 0.551749 0.801320
vt 0.552006 0.861622
vt 0.521338 0.830127
vt 0.523489 0.793850
vt 0.504973 0.830339
vt 0.501845 0.802306
vt 0.500941 0.790500
vt 0.485854 0.802259
vt 0.326260 0.890064
vt 0.346421 0.892694
vt 0.336642 0.908159
vt 0.357215 0.912195
vt 0.357398 0.904216
vt 0.342660 0.899829
vt 0.358536 0.896134
vt 0.379363 0.921066
vt 0.370514 0.889958
vt 0.378033 0.908559
vt 0.392088 0.884061
vt 0.397918 0.933238
vt 0.397382 0.907135
vt 0.405676 0.865911
vt 0.415435 0.945568
vt 0.417798 0.907767
vt 0.437480 0.902306
vt 0.448286 0.863200
vt 0.494268 0.861103
vt 0.503783 0.905610
vt 0.470126 0.864876
vt 0.472529 0.914371
vt 0.486397 0.843849
vt 0.470427 0.842708
vt 0.451220 0.845955
vt 0.446653 0.831623
vt 0.471787 0.819651
vt 0.463674 0.830386
vt 0.319784 0.901904
vn 0.134640 0.989415 0.054139
vn 0.158253 0.838130 0.522010
vn 0.373772 0.771056 0.515526
vn 0.499543 0.863027 0.075111
vn 0.124694 0.886818 -0.444977
vn 0.134640 0.989415 0.054139
vn 0.499543 0.863027 0.075111
vn 0.421791 0.841151 -0.338464
vn -0.400077 -0.772250 0.493526
vn 0.102998 -0.993006 0.057717
vn 0.329666 -0.941808 0.065713
vn -0.082534 -0.793154 0.603403
vn 0.147196 -0.748780 0.646267
vn -0.082534 -0.793154 0.603403
vn 0.329666 -0.941808 0.065713
vn 0.365692 -0.927278 0.080159
vn 0.147196 -0.748780 0.646267
vn 0.365692 -0.927278 0.080159
vn 0.408347 -0.881074 0.238664
vn 0.251427 -0.612346 0.749544
vn -0.568346 -0.306312 0.763646
vn -0.400077 -0.772250 0.493526
vn -0.082534 -0.793154 0.603403
vn -0.252456 -0.325588 0.911185
vn -0.052266 -0.187122 0.980945
vn -0.252456 -0.325588 0.911185
vn -0.082534 -0.793154 0.603403
vn 0.147196 -0.748780 0.646267
vn -0.052266 -0.187122 0.980945
vn 0.147196 -0.748780 0.646267
vn 0.251427 -0.612346 0.749544
vn 0.138921 0.009911 0.990254
vn -0.297147 0.613263 0.731855
vn -0.498020 0.613161 0.613196
vn -0.568346 -0.306312 0.763646
vn -0.252456 -0.325588 0.911185
vn -0.168190 0.724622 0.668307
vn -0.297147 0.613263 0.731855
vn -0.252456 -0.325588 0.911185
vn -0.052266 -0.187122 0.980945
vn -0.168190 0.724622 0.668307
vn -0.052266 -0.187122 0.980945
vn 0.138921 0.009911 0.990254
vn 0.082931 0.765039 0.638622
vn 0.004740 0.998327 0.057618
vn 0.082931 0.765039 0.638622
vn 0.158253 0.838130 0.522010
vn 0.134640 0.989415 0.054139
vn -0.142359 0.953115 0.267032
vn -0.168190 0.724622 0.668307
vn 0.082931 0.765039 0.638622
vn 0.004740 0.998327 0.057618
vn -0.222187 0.974396 0.034417
vn -0.297147 0.613263 0.731855
vn -0.168190 0.724622 0.668307
vn -0.142359 0.953115 0.267032
vn -0.222187 0.974396 0.034417
vn -0.142359 0.953115 0.267032
vn 0.004740 0.998327 0.057618
vn -0.094761 0.816576 -0.569407
vn 0.004740 0.998327 0.057618
vn 0.134640 0.989415 0.054139
vn 0.124694 0.886818 -0.444977
vn -0.094761 0.816576 -0.569407
vn -0.904785 -0.269065 0.330103
vn -0.854441 -0.503666 0.127478
vn -0.400077 -0.772250 0.493526
vn -0.568346 -0.306312 0.763646
vn -0.889888 0.270806 0.367102
vn -0.904785 -0.269065 0.330103
vn -0.568346 -0.306312 0.763646
vn -0.498020 0.613161 0.613196
vn -0.222187 0.974396 0.034417
vn -0.094761 0.816576 -0.569407
vn -0.252118 0.764840 -0.592838
vn -0.309033 0.950506 0.032191
vn -0.252118 0.764840 -0.592838
vn -0.641485 0.421159 -0.641188
vn -0.783404 0.508871 -0.356832
vn -0.309033 0.950506 0.032191
vn -0.309033 0.950506 0.032191
vn -0.783404 0.508871 -0.356832
vn -0.913007 0.401555 -0.071914
vn -0.913007 0.401555 -0.071914
vn -0.889888 0.270806 0.367102
vn -0.498020 0.613161 0.613196
vn -0.309033 0.950506 0.032191
vn -0.309033 0.950506 0.032191
vn -0.498020 0.613161 0.613196
vn -0.297147 0.613263 0.731855
vn -0.222187 0.974396 0.034417
vn -0.953022 -0.108809 -0.282682
vn -0.904785 -0.269065 0.330103
vn -0.889888 0.270806 0.367102
vn -0.913007 0.401555 -0.071914
vn -0.783404 0.508871 -0.356832
vn -0.641485 0.421159 -0.641188
vn -0.953022 -0.108809 -0.282682
vn -0.913007 0.401555 -0.071914
vn 0.408954 -0.486612 0.771988
vn 0.251427 -0.612346 0.749544
vn 0.408347 -0.881074 0.238664
vn 0.647137 -0.665849 0.371294
vn 0.499543 0.863027 0.075111
vn 0.373772 0.771056 0.515526
vn 0.616241 0.635525 0.465140
vn 0.796432 0.603995 -0.029768
vn 0.962629 0.227690 -0.146637
vn 0.763114 0.236681 0.601364
vn 0.647137 -0.665849 0.371294
vn 0.765421 -0.630919 -0.126774
vn 0.565956 0.549548 -0.614566
vn 0.421791 0.841151 -0.338464
vn 0.499543 0.863027 0.075111
vn 0.796432 0.603995 -0.029768
vn 0.765421 -0.630919 -0.126774
vn 0.647137 -0.665849 0.371294
vn 0.408347 -0.881074 0.238664
vn 0.559638 -0.786349 -0.261649
vn 0.756744 -0.122720 -0.642089
vn 0.565956 0.549548 -0.614566
vn 0.796432 0.603995 -0.029768
vn 0.962629 0.227690 -0.146637
vn 0.756744 -0.122720 -0.642089
vn 0.962629 0.227690 -0.146637
vn 0.765421 -0.630919 -0.126774
vn 0.559638 -0.786349 -0.261649
vn 0.465341 -0.798034 -0.382883
vn 0.559638 -0.786349 -0.261649
vn 0.408347 -0.881074 0.238664
vn 0.365692 -0.927278 0.080159
vn 0.264923 0.536980 -0.800917
vn 0.124694 0.886818 -0.444977
vn 0.421791 0.841151 -0.338464
vn 0.565956 0.549548 -0.614566
vn 0.483549 -0.309173 -0.818897
vn 0.264923 0.536980 -0.800917
vn 0.565956 0.549548 -0.614566
vn 0.756744 -0.122720 -0.642089
vn 0.483549 -0.309173 -0.818897
vn 0.756744 -0.122720 -0.642089
vn 0.559638 -0.786349 -0.261649
vn 0.465341 -0.798034 -0.382883
vn 0.465341 -0.798034 -0.382883
vn 0.365692 -0.927278 0.080159
vn 0.329666 -0.941808 0.065713
vn 0.466449 -0.773715 -0.428707
vn 0.050503 0.398781 -0.915655
vn -0.094761 0.816576 -0.569407
vn 0.124694 0.886818 -0.444977
vn 0.264923 0.536980 -0.800917
vn 0.306904 -0.216643 -0.926756
vn 0.050503 0.398781 -0.915655
vn 0.264923 0.536980 -0.800917
vn 0.483549 -0.309173 -0.818897
vn 0.306904 -0.216643 -0.926756
vn 0.483549 -0.309173 -0.818897
vn 0.465341 -0.798034 -0.382883
vn 0.466449 -0.773715 -0.428707
vn 0.466449 -0.773715 -0.428707
vn 0.329666 -0.941808 0.065713
vn 0.102998 -0.993006 0.057717
vn 0.435172 -0.752821 -0.493848
vn -0.032543 0.357348 -0.933404
vn -0.252118 0.764840 -0.592838
vn -0.094761 0.816576 -0.569407
vn 0.050503 0.398781 -0.915655
vn 0.164794 -0.152712 -0.974434
vn -0.032543 0.357348 -0.933404
vn 0.050503 0.398781 -0.915655
vn 0.306904 -0.216643 -0.926756
vn 0.164794 -0.152712 -0.974434
vn 0.306904 -0.216643 -0.926756
vn 0.466449 -0.773715 -0.428707
vn 0.435172 -0.752821 -0.493848
vn -0.556810 0.099550 -0.824653
vn -0.641485 0.421159 -0.641188
vn -0.252118 0.764840 -0.592838
vn -0.032543 0.357348 -0.933404
vn -0.556810 0.099550 -0.824653
vn -0.032543 0.357348 -0.933404
vn 0.164794 -0.152712 -0.974434
vn -0.448054 -0.136673 -0.883498
vn -0.448054 -0.136673 -0.883498
vn 0.164794 -0.152712 -0.974434
vn 0.435172 -0.752821 -0.493848
vn -0.000299 -0.694634 -0.719363
vn -0.000299 -0.694634 -0.719363
vn 0.435172 -0.752821 -0.493848
vn 0.102998 -0.993006 0.057717
vn -0.438774 -0.865122 -0.242984
vn -0.922280 -0.137012 -0.361424
vn -0.854441 -0.503666 0.127478
vn -0.904785 -0.269065 0.330103
vn -0.953022 -0.108809 -0.282682
vn -0.438774 -0.865122 -0.242984
vn -0.854441 -0.503666 0.127478
vn -0.922280 -0.137012 -0.361424
vn -0.888267 -0.198947 -0.414007
vn 0.102998 -0.993006 0.057717
vn -0.400077 -0.772250 0.493526
vn -0.854441 -0.503666 0.127478
vn -0.438774 -0.865122 -0.242984
vn -0.438774 -0.865122 -0.242984
vn -0.888267 -0.198947 -0.414007
vn -0.448054 -0.136673 -0.883498
vn -0.000299 -0.694634 -0.719363
vn -0.953022 -0.108809 -0.282682
vn -0.641485 0.421159 -0.641188
vn -0.556810 0.099550 -0.824653
vn -0.922280 -0.137012 -0.361424
vn -0.922280 -0.137012 -0.361424
vn -0.556810 0.099550 -0.824653
vn -0.448054 -0.136673 -0.883498
vn -0.888267 -0.198947 -0.414007
vn 0.365830 0.238183 0.899688
vn 0.138921 0.009911 0.990254
vn 0.251427 -0.612346 0.749544
vn 0.408954 -0.486612 0.771988
vn 0.158253 0.838130 0.522010
vn 0.082931 0.765039 0.638622
vn 0.138921 0.009911 0.990254
vn 0.365830 0.238183 0.899688
vn 0.365830 0.238183 0.899688
vn 0.408954 -0.486612 0.771988
vn 0.647137 -0.665849 0.371294
vn 0.763114 0.236681 0.601364
vn 0.365830 0.238183 0.899688
vn 0.616241 0.635525 0.465140
vn 0.373772 0.771056 0.515526
vn 0.158253 0.838130 0.522010
vn 0.763114 0.236681 0.601364
vn 0.616241 0.635525 0.465140
vn 0.365830 0.238183 0.899688
vn 0.962629 0.227690 -0.146637
vn 0.796432 0.603995 -0.029768
vn 0.616241 0.635525 0.465140
vn 0.763114 0.236681 0.601364
s off
g Rocks_6
usemtl lambert2SG
f 42/1/1 41/2/2 30/3/3 29/4/4
f 43/5/5 42/1/6 29/4/7 38/6/8
f 14/7/9 13/8/10 18/9/11 32/10/12
f 47/11/13 32/12/14 18/13/15 46/14/16
f 47/11/17 46/14/18 19/15/19 33/16/20
f 15/17/21 14/7/22 32/10/23 31/18/24
f 48/19/25 31/20/26 32/12/27 47/11/28
f 48/19/29 47/11/30 33/16/31 34/21/32
f 26/22/33 16/23/34 15/17/35 31/18/36
f 49/24/37 26/25/38 31/20/39 48/19/40
f 49/24/41 48/19/42 34/21/43 27/26/44
f 28/27/45 27/26/46 41/2/47 42/1/48
f 50/28/49 49/24/50 27/26/51 28/27/52
f 25/29/53 26/25/54 49/24/55 50/28/56
f 25/29/57 50/28/58 28/27/59 35/30/60
f 28/27/61 42/1/62 43/5/63 35/30/64
f 4/31/65 3/32/66 14/7/67 15/17/68
f 5/33/69 4/31/70 15/17/71 16/23/72
f 25/34/73 35/35/74 10/36/75 9/37/76
f 10/36/77 7/38/78 6/39/79 9/37/80
f 9/37/81 6/39/82 53/40/83
f 53/40/84 5/33/85 16/23/86 9/37/87
f 9/37/88 16/23/89 26/22/90 25/34/91
f 52/41/92 4/31/93 5/33/94 53/40/95
f 6/39/96 7/38/97 52/41/98 53/40/99
f 39/42/100 33/16/101 19/15/102 22/43/103
f 29/4/104 30/3/105 24/44/106 23/45/107
f 55/46/108 54/47/109 22/43/110 21/48/111
f 37/49/112 38/6/113 29/4/114 23/45/115
f 21/48/116 22/43/117 19/15/118 20/50/119
f 56/51/120 37/49/121 23/45/122 55/46/123
f 56/51/124 55/46/125 21/48/126 20/50/127
f 45/52/128 20/50/129 19/15/130 46/14/131
f 44/53/132 43/5/133 38/6/134 37/49/135
f 57/54/136 44/53/137 37/49/138 56/51/139
f 57/54/140 56/51/141 20/50/142 45/52/143
f 45/52/144 46/14/145 18/13/146 17/55/147
f 36/56/148 35/30/149 43/5/150 44/53/151
f 58/57/152 36/56/153 44/53/154 57/54/155
f 58/57/156 57/54/157 45/52/158 17/55/159
f 17/58/160 18/9/161 13/8/162 12/59/163
f 11/60/164 10/36/165 35/35/166 36/61/167
f 59/62/168 11/60/169 36/61/170 58/63/171
f 59/62/172 58/63/173 17/58/174 12/59/175
f 8/64/176 7/38/177 10/36/178 11/60/179
f 8/64/180 11/60/181 59/62/182 60/65/183
f 60/65/184 59/62/185 12/59/186 1/66/187
f 1/66/188 12/59/189 13/8/190 2/67/191
f 51/68/192 3/32/193 4/31/194 52/41/195
f 2/67/196 3/32/197 51/68/198 61/69/199
f 13/8/200 14/7/201 3/32/202 2/67/203
f 2/67/204 61/69/205 60/65/206 1/66/207
f 52/41/208 7/38/209 8/64/210 51/68/211
f 51/68/212 8/64/213 60/65/214 61/69/215
f 40/70/216 34/21/217 33/16/218 39/42/219
f 41/2/220 27/26/221 34/21/222 40/70/223
f 40/70/224 39/42/225 22/43/226 54/47/227
f 40/70/228 24/44/229 30/3/230 41/2/231
f 54/47/232 24/44/233 40/70/234
f 55/46/235 23/45/236 24/44/237 54/47/238
