# This file uses centimeters as units for non-parametric coordinates.

v -3.048124 0.810516 1.213347
v -3.048124 0.856327 1.203283
v -3.048124 0.877021 1.161192
v -3.048124 0.857015 1.118770
v -3.048124 0.811374 1.107961
v -3.048124 0.774467 1.136905
v -3.048124 0.774085 1.183806
v 3.048124 0.847490 1.213348
v 3.048124 0.893300 1.203283
v 3.048124 0.913995 1.161192
v 3.048124 0.893989 1.118770
v 3.048124 0.848348 1.107961
v 3.048124 0.811441 1.136905
v 3.048124 0.811059 1.183806
v 2.351364 0.847490 1.218014
v 2.351364 0.811059 1.188473
v 2.351364 0.811441 1.141572
v 2.351364 0.848348 1.112628
v 2.351364 0.893989 1.123437
v 2.351364 0.913995 1.165859
v 2.351364 0.893301 1.207950
v 2.297850 0.847490 1.218115
v 2.297850 0.811059 1.188574
v 2.297850 0.811441 1.141673
v 2.297850 0.848348 1.112729
v 2.297850 0.893989 1.123538
v 2.297850 0.913995 1.165960
v 2.297850 0.893301 1.208051
v 0.839105 0.847490 1.205990
v 0.839105 0.811059 1.176449
v 0.839105 0.811441 1.129547
v 0.839105 0.848348 1.100603
v 0.839105 0.893989 1.111412
v 0.839105 0.913995 1.153835
v 0.839105 0.893300 1.195925
v 0.791455 0.847490 1.206080
v 0.791455 0.811059 1.176539
v 0.791455 0.811441 1.129637
v 0.791455 0.848348 1.100694
v 0.791455 0.893989 1.111503
v 0.791455 0.913995 1.153925
v 0.791455 0.893300 1.196016
v -0.769810 0.847490 1.209035
v -0.769810 0.811059 1.179494
v -0.769810 0.811441 1.132593
v -0.769810 0.848348 1.103649
v -0.769810 0.893989 1.114458
v -0.769810 0.913995 1.156880
v -0.769810 0.893300 1.198971
v -0.824070 0.847490 1.209138
v -0.824070 0.811059 1.179596
v -0.824070 0.811441 1.132695
v -0.824070 0.848348 1.103751
v -0.824070 0.893989 1.114560
v -0.824070 0.913995 1.156983
v -0.824070 0.893301 1.199073
v -2.346789 0.847490 1.212027
v -2.346789 0.811059 1.182486
v -2.346789 0.811441 1.135585
v -2.346789 0.848348 1.106641
v -2.346789 0.893989 1.117450
v -2.346789 0.913995 1.159872
v -2.346789 0.893301 1.201963
v -2.396082 0.847490 1.212106
v -2.396082 0.811059 1.182564
v -2.396082 0.811441 1.135663
v -2.396082 0.848348 1.106719
v -2.396082 0.893989 1.117528
v -2.396082 0.913995 1.159951
v -2.396082 0.893301 1.202041
v -1.585429 0.847490 1.175161
v -1.585429 0.893301 1.165097
v -1.585429 0.913995 1.123006
v -1.585429 0.893989 1.080584
v -1.585429 0.848348 1.069775
v -1.585429 0.811441 1.098719
v -1.585429 0.811059 1.145620
v 0.010823 0.847490 1.241436
v 0.010823 0.893300 1.231372
v 0.010823 0.913995 1.189281
v 0.010823 0.893989 1.146859
v 0.010823 0.848348 1.136050
v 0.010823 0.811441 1.164994
v 0.010823 0.811059 1.211895
v 1.568477 0.920505 1.201988
v 1.568477 0.941199 1.159897
v 1.568477 0.921193 1.117475
v 1.568477 0.875552 1.106666
v 1.568477 0.838645 1.135610
v 1.568477 0.838263 1.182511
v 1.568477 0.874694 1.212053
vt 0.078377 0.122189
vt 0.070772 0.122153
vt 0.069846 0.001586
vt 0.077451 0.001499
vt 0.085962 0.122130
vt 0.085051 0.001299
vt 0.093551 0.121996
vt 0.092649 0.001094
vt 0.101148 0.121856
vt 0.100251 0.000998
vt 0.108760 0.121769
vt 0.107854 0.001040
vt 0.116378 0.121763
vt 0.115458 0.001145
vt 0.063165 0.122077
vt 0.062239 0.001535
vt 0.070758 0.130794
vt 0.063140 0.130735
vt 0.108856 0.130427
vt 0.101252 0.130549
vt 0.093642 0.130719
vt 0.086019 0.130838
vt 0.078384 0.130854
vt 0.071406 0.367252
vt 0.063787 0.367307
vt 0.063878 0.249027
vt 0.071478 0.248965
vt 0.117136 0.367445
vt 0.109522 0.367336
vt 0.109432 0.248949
vt 0.117037 0.248866
vt 0.101901 0.367154
vt 0.101830 0.249008
vt 0.094267 0.367035
vt 0.094239 0.249017
vt 0.086625 0.367033
vt 0.086653 0.248986
vt 0.079008 0.367141
vt 0.079068 0.248954
vt 0.071454 0.375003
vt 0.063845 0.374947
vt 0.109396 0.375024
vt 0.101800 0.374829
vt 0.094211 0.374732
vt 0.086637 0.374787
vt 0.079054 0.374914
vt 0.069822 0.627538
vt 0.062205 0.627658
vt 0.062842 0.501210
vt 0.070442 0.501267
vt 0.115353 0.627710
vt 0.107765 0.627946
vt 0.108484 0.501484
vt 0.116091 0.501546
vt 0.100203 0.628089
vt 0.100867 0.501426
vt 0.092645 0.628025
vt 0.093249 0.501382
vt 0.085068 0.627818
vt 0.085638 0.501347
vt 0.077457 0.627597
vt 0.078038 0.501312
vt 0.070632 0.883828
vt 0.063046 0.883747
vt 0.062425 0.760101
vt 0.070034 0.760086
vt 0.116312 0.883458
vt 0.108699 0.883317
vt 0.108018 0.759946
vt 0.115615 0.759935
vt 0.101074 0.883261
vt 0.100429 0.759962
vt 0.093441 0.883350
vt 0.092842 0.759989
vt 0.085825 0.883542
vt 0.085249 0.760024
vt 0.078228 0.883742
vt 0.077647 0.760060
vt 0.063994 0.997608
vt 0.063069 0.891782
vt 0.070691 0.891783
vt 0.071600 0.997549
vt 0.109628 0.997194
vt 0.108687 0.891323
vt 0.116299 0.891391
vt 0.117233 0.997145
vt 0.102025 0.997247
vt 0.101103 0.891286
vt 0.094421 0.997314
vt 0.093526 0.891361
vt 0.086816 0.997395
vt 0.085933 0.891537
vt 0.079208 0.997477
vt 0.078318 0.891704
vt 0.069796 0.636330
vt 0.077372 0.636397
vt 0.084962 0.636612
vt 0.092587 0.636837
vt 0.100238 0.636885
vt 0.107884 0.636736
vt 0.115503 0.636487
vt 0.062206 0.636466
vt 0.116975 0.375244
vt 0.116467 0.130400
vn 0.005004 0.616277 0.787514
vn 0.006184 -0.230071 0.973154
vn 0.006517 -0.230862 0.972965
vn 0.005266 0.617990 0.786168
vn 0.000063 0.999952 0.009826
vn 0.000042 0.999980 0.006295
vn -0.004932 0.630648 -0.776053
vn -0.005208 0.628919 -0.777453
vn -0.006207 -0.214920 -0.976612
vn -0.006542 -0.214180 -0.976772
vn -0.002795 -0.898065 -0.439854
vn -0.002965 -0.896666 -0.442698
vn 0.002720 -0.903819 0.427907
vn 0.002847 -0.905180 0.425018
vn -0.015716 -0.239046 0.970881
vn -0.034650 -0.904841 0.424337
vn -0.027945 -0.899785 -0.435438
vn -0.000394 -0.224167 -0.974551
vn 0.027661 0.624896 -0.780218
vn 0.034670 0.999345 0.010369
vn 0.015149 0.610041 0.792225
vn 0.000967 -0.240083 0.970752
vn 0.028504 -0.906708 0.420794
vn -0.003644 -0.902601 0.430462
vn -0.008145 -0.220706 0.975306
vn 0.034788 -0.897884 -0.438855
vn 0.003768 -0.895404 -0.445240
vn 0.015326 -0.223336 -0.974621
vn 0.008172 -0.204753 -0.978780
vn -0.015781 0.622862 -0.782173
vn 0.006330 0.636054 -0.771619
vn -0.035056 0.999367 0.006056
vn -0.000066 0.999968 0.008061
vn -0.027506 0.611972 0.790401
vn -0.006415 0.623483 0.781810
vn 0.041608 -0.232855 0.971621
vn 0.017821 -0.908787 0.416878
vn -0.019303 -0.892512 -0.450612
vn -0.041757 -0.211895 -0.976400
vn -0.033416 0.623666 -0.780976
vn -0.000185 0.999994 -0.003604
vn 0.033473 0.622389 0.781992
vn -0.037622 -0.232672 0.971827
vn -0.016141 -0.908438 0.417707
vn 0.000840 -0.899773 0.436358
vn 0.001822 -0.227733 0.973722
vn 0.017419 -0.892952 -0.449814
vn -0.000803 -0.902071 -0.431586
vn 0.037751 -0.212144 -0.976509
vn -0.001868 -0.217052 -0.976158
vn 0.030194 0.624234 -0.780654
vn -0.001466 0.635622 -0.771999
vn 0.000129 0.999997 -0.002599
vn 0.000061 0.999797 0.020125
vn -0.030277 0.621976 0.782451
vn 0.001492 0.611210 0.791467
vn 0.044301 -0.227385 0.972797
vn 0.019927 -0.899378 0.436718
vn 0.000774 -0.909338 0.416058
vn 0.001867 -0.233295 0.972404
vn -0.019623 -0.902106 -0.431067
vn -0.000872 -0.892232 -0.451577
vn -0.044475 -0.216950 -0.975169
vn -0.001832 -0.211846 -0.977301
vn -0.035159 0.635489 -0.771309
vn -0.001478 0.623468 -0.781848
vn 0.000979 0.999786 0.020669
vn -0.000033 0.999989 -0.004693
vn 0.036047 0.610542 0.791163
vn 0.001490 0.623253 0.782019
vn 0.052169 -0.905900 0.420265
vn 0.048349 -0.900965 0.431189
vn 0.013217 -0.216794 0.976128
vn 0.015747 -0.245150 0.969357
vn 0.050182 -0.899544 -0.433938
vn 0.046293 -0.893452 -0.446766
vn 0.011167 -0.229610 -0.973219
vn 0.008678 -0.200612 -0.979632
vn -0.036665 0.620288 -0.783517
vn -0.035093 0.638036 -0.769207
vn -0.056595 0.998359 0.008773
vn -0.052572 0.998589 0.007550
vn -0.032900 0.606873 0.794118
vn -0.031556 0.626052 0.779143
vn -0.040375 -0.227650 0.972906
vn -0.032838 0.611104 0.790869
vn -0.000851 0.999806 0.019677
vn 0.032060 0.635082 -0.771779
vn 0.040539 -0.216784 -0.975378
vn 0.017916 -0.901756 -0.431875
vn -0.018126 -0.899804 0.435918
g Railing_Top_Right Railing_Top polySurface50 polySurface45 polySurface34 polySurface25 polySurface21 polySurface19 pCylinder3
f 21/1/1 15/2/2 8/3/3 9/4/4
f 20/5/5 21/1/1 9/4/4 10/6/6
f 19/7/7 20/5/5 10/6/6 11/8/8
f 18/9/9 19/7/7 11/8/8 12/10/10
f 17/11/11 18/9/9 12/10/10 13/12/12
f 16/13/13 17/11/11 13/12/12 14/14/14
f 15/2/2 16/15/13 14/16/14 8/3/3
f 22/17/15 23/18/16 16/15/13 15/2/2
f 24/19/17 25/20/18 18/9/9 17/11/11
f 25/20/18 26/21/19 19/7/7 18/9/9
f 26/21/19 27/22/20 20/5/5 19/7/7
f 27/22/20 28/23/21 21/1/1 20/5/5
f 28/23/21 22/17/15 15/2/2 21/1/1
f 29/24/22 30/25/23 90/26/24 91/27/25
f 30/28/23 31/29/26 89/30/27 90/31/24
f 31/29/26 32/32/28 88/33/29 89/30/27
f 32/32/28 33/34/30 87/35/31 88/33/29
f 33/34/30 34/36/32 86/37/33 87/35/31
f 34/36/32 35/38/34 85/39/35 86/37/33
f 35/38/34 29/24/22 91/27/25 85/39/35
f 36/40/36 37/41/37 30/25/23 29/24/22
f 38/42/38 39/43/39 32/32/28 31/29/26
f 39/43/39 40/44/40 33/34/30 32/32/28
f 40/44/40 41/45/41 34/36/32 33/34/30
f 41/45/41 42/46/42 35/38/34 34/36/32
f 42/46/42 36/40/36 29/24/22 35/38/34
f 43/47/43 44/48/44 84/49/45 78/50/46
f 44/51/44 45/52/47 83/53/48 84/54/45
f 45/52/47 46/55/49 82/56/50 83/53/48
f 46/55/49 47/57/51 81/58/52 82/56/50
f 47/57/51 48/59/53 80/60/54 81/58/52
f 48/59/53 49/61/55 79/62/56 80/60/54
f 49/61/55 43/47/43 78/50/46 79/62/56
f 57/63/57 58/64/58 77/65/59 71/66/60
f 58/67/58 59/68/61 76/69/62 77/70/59
f 59/68/61 60/71/63 75/72/64 76/69/62
f 60/71/63 61/73/65 74/74/66 75/72/64
f 61/73/65 62/75/67 73/76/68 74/74/66
f 62/75/67 63/77/69 72/78/70 73/76/68
f 63/77/69 57/63/57 71/66/60 72/78/70
f 7/79/71 65/80/72 64/81/73 1/82/74
f 6/83/75 66/84/76 65/85/72 7/86/71
f 5/87/77 67/88/78 66/84/76 6/83/75
f 4/89/79 68/90/80 67/88/78 5/87/77
f 3/91/81 69/92/82 68/90/80 4/89/79
f 2/93/83 70/94/84 69/92/82 3/91/81
f 1/82/74 64/81/73 70/94/84 2/93/83
f 72/78/70 71/66/60 50/95/85 56/96/86
f 73/76/68 72/78/70 56/96/86 55/97/87
f 74/74/66 73/76/68 55/97/87 54/98/88
f 75/72/64 74/74/66 54/98/88 53/99/89
f 76/69/62 75/72/64 53/99/89 52/100/90
f 77/70/59 76/69/62 52/100/90 51/101/91
f 71/66/60 77/65/59 51/102/91 50/95/85
f 79/62/56 78/50/46 36/40/36 42/46/42
f 80/60/54 79/62/56 42/46/42 41/45/41
f 81/58/52 80/60/54 41/45/41 40/44/40
f 82/56/50 81/58/52 40/44/40 39/43/39
f 83/53/48 82/56/50 39/43/39 38/42/38
f 84/54/45 83/53/48 38/42/38 37/103/37
f 78/50/46 84/49/45 37/41/37 36/40/36
f 86/37/33 85/39/35 28/23/21 27/22/20
f 87/35/31 86/37/33 27/22/20 26/21/19
f 88/33/29 87/35/31 26/21/19 25/20/18
f 89/30/27 88/33/29 25/20/18 24/19/17
f 90/31/24 89/30/27 24/19/17 23/104/16
f 91/27/25 90/26/24 23/18/16 22/17/15
f 85/39/35 91/27/25 22/17/15 28/23/21
f 65/80/72 58/64/58 57/63/57 64/81/73
f 60/71/63 59/68/61 66/84/76 67/88/78
f 61/73/65 60/71/63 67/88/78 68/90/80
f 62/75/67 61/73/65 68/90/80 69/92/82
f 63/77/69 62/75/67 69/92/82 70/94/84
f 64/81/73 57/63/57 63/77/69 70/94/84
f 44/48/44 43/47/43 50/95/85 51/102/91
f 43/47/43 49/61/55 56/96/86 50/95/85
f 49/61/55 48/59/53 55/97/87 56/96/86
f 48/59/53 47/57/51 54/98/88 55/97/87
f 47/57/51 46/55/49 53/99/89 54/98/88
f 46/55/49 45/52/47 52/100/90 53/99/89
f 59/68/61 58/67/58 65/85/72 66/84/76
f 45/52/47 44/51/44 51/101/91 52/100/90
f 31/29/26 30/28/23 37/103/37 38/42/38
f 17/11/11 16/13/13 23/104/16 24/19/17
