# This file uses centimeters as units for non-parametric coordinates.

v -2.393283 0.217000 -1.216120
v -2.414309 0.217000 -1.184701
v -2.414309 0.824971 -1.184701
v -2.393283 0.824971 -1.216120
v -2.403289 0.217000 -1.133223
v -2.371243 0.217000 -1.113165
v -2.371243 0.824971 -1.113165
v -2.403289 0.824971 -1.133223
v -2.308166 0.217000 -1.207423
v -2.340211 0.217000 -1.227481
v -2.340211 0.824971 -1.227481
v -2.308166 0.824971 -1.207423
v -2.318172 0.217000 -1.124527
v -2.318172 0.824971 -1.124527
v -2.297145 0.217000 -1.155946
v -2.297145 0.824971 -1.155946
v -2.340211 0.429609 -1.194538
v -2.393283 0.429609 -1.183177
v -2.414308 0.429609 -1.151758
v -2.403289 0.429609 -1.100280
v -2.371243 0.429609 -1.080222
v -2.318172 0.429609 -1.091584
v -2.297145 0.429609 -1.123003
v -2.308166 0.429609 -1.174480
v -0.888843 0.217000 -1.219353
v -0.909870 0.217000 -1.187934
v -0.909870 0.822585 -1.187934
v -0.888843 0.822585 -1.219353
v -0.898849 0.217000 -1.136456
v -0.866804 0.217000 -1.116398
v -0.866804 0.822585 -1.116398
v -0.898849 0.822585 -1.136456
v -0.803726 0.217000 -1.210656
v -0.835772 0.217000 -1.230714
v -0.835772 0.822585 -1.230714
v -0.803726 0.822585 -1.210656
v -0.813732 0.217000 -1.127760
v -0.813732 0.822585 -1.127760
v -0.792706 0.217000 -1.159179
v -0.792706 0.822585 -1.159179
v -0.835772 0.582789 -1.271168
v -0.888843 0.582789 -1.259807
v -0.909870 0.582789 -1.228388
v -0.898849 0.582789 -1.176910
v -0.866804 0.582789 -1.156852
v -0.813732 0.582789 -1.168214
v -0.792706 0.582789 -1.199633
v -0.803726 0.582789 -1.251110
v 0.652537 0.217000 -1.202552
v 0.631511 0.217000 -1.171133
v 0.631511 0.835942 -1.171133
v 0.652537 0.835942 -1.202552
v 0.642531 0.217000 -1.119655
v 0.674577 0.217000 -1.099597
v 0.674577 0.835942 -1.099597
v 0.642531 0.835942 -1.119655
v 0.737655 0.217000 -1.193855
v 0.705609 0.217000 -1.213913
v 0.705609 0.835942 -1.213913
v 0.737655 0.835942 -1.193855
v 0.727649 0.217000 -1.110959
v 0.727649 0.835942 -1.110959
v 0.748675 0.217000 -1.142378
v 0.748675 0.835942 -1.142378
v 0.668971 0.483730 -1.213913
v 0.615899 0.483730 -1.202552
v 0.594873 0.483730 -1.171133
v 0.605893 0.483730 -1.119655
v 0.637939 0.483730 -1.099597
v 0.691010 0.483730 -1.110959
v 0.712037 0.483730 -1.142378
v 0.701016 0.483730 -1.193855
v 2.215672 0.217000 -1.250133
v 2.194645 0.217000 -1.218714
v 2.194645 0.823077 -1.218714
v 2.215672 0.823077 -1.250133
v 2.205666 0.217000 -1.167236
v 2.237711 0.217000 -1.147178
v 2.237711 0.823077 -1.147178
v 2.205666 0.823077 -1.167236
v 2.300789 0.217000 -1.241436
v 2.268743 0.217000 -1.261494
v 2.268743 0.823077 -1.261494
v 2.300789 0.823077 -1.241436
v 2.290783 0.217000 -1.158540
v 2.290783 0.823077 -1.158540
v 2.311809 0.217000 -1.189959
v 2.311809 0.823077 -1.189959
v 2.268743 0.470507 -1.212096
v 2.215672 0.470507 -1.200735
v 2.194645 0.470507 -1.169315
v 2.205666 0.470507 -1.117838
v 2.237711 0.470507 -1.097780
v 2.290783 0.470507 -1.109141
v 2.311809 0.470507 -1.140560
v 2.300789 0.470507 -1.192038
vt 0.079816 0.702478
vt 0.012893 0.797295
vt 0.016224 0.292665
vt 0.082743 0.258875
vt 0.232662 0.798034
vt 0.173449 0.702793
vt 0.176377 0.259190
vt 0.235992 0.293405
vt 0.554785 0.799119
vt 0.492985 0.703869
vt 0.495913 0.260266
vt 0.558116 0.294490
vt 0.676850 0.294890
vt 0.673519 0.799519
vt 0.333315 0.798373
vt 0.336645 0.293744
vt 0.399646 0.703555
vt 0.402573 0.259952
vt 0.672362 0.974893
vt 0.553627 0.974493
vt 0.678706 0.013625
vt 0.559972 0.013225
vt 0.018080 0.011400
vt 0.084375 0.011623
vt 0.178008 0.011939
vt 0.237849 0.012140
vt 0.338502 0.012479
vt 0.404205 0.012700
vt 0.497545 0.013015
vt 0.079816 0.702478
vt 0.012893 0.797295
vt 0.013553 0.697245
vt 0.080396 0.614528
vt 0.232662 0.798034
vt 0.173449 0.702793
vt 0.174029 0.614843
vt 0.233322 0.697985
vt 0.554785 0.799119
vt 0.492985 0.703869
vt 0.493566 0.615919
vt 0.555445 0.699069
vt 0.674179 0.699469
vt 0.673519 0.799519
vt 0.333315 0.798373
vt 0.333975 0.698324
vt 0.399646 0.703555
vt 0.400226 0.615604
vt 0.672362 0.974893
vt 0.553627 0.974493
vt 0.678706 0.013625
vt 0.559972 0.013225
vt 0.018080 0.011400
vt 0.084375 0.011623
vt 0.178008 0.011939
vt 0.237849 0.012140
vt 0.338502 0.012479
vt 0.404205 0.012700
vt 0.497545 0.013015
vt 0.079816 0.702478
vt 0.012893 0.797295
vt 0.015751 0.364263
vt 0.082328 0.321814
vt 0.232662 0.798034
vt 0.173449 0.702793
vt 0.175961 0.322129
vt 0.235520 0.365003
vt 0.554785 0.799119
vt 0.492985 0.703869
vt 0.495498 0.323205
vt 0.557643 0.366087
vt 0.676377 0.366487
vt 0.673519 0.799519
vt 0.333315 0.798373
vt 0.336173 0.365342
vt 0.399646 0.703555
vt 0.402158 0.322891
vt 0.672362 0.974893
vt 0.553627 0.974493
vt 0.678706 0.013625
vt 0.559972 0.013225
vt 0.018080 0.011400
vt 0.084375 0.011623
vt 0.178008 0.011939
vt 0.237849 0.012140
vt 0.338502 0.012479
vt 0.404205 0.012700
vt 0.497545 0.013015
vt 0.079816 0.702478
vt 0.012893 0.797295
vt 0.015867 0.346770
vt 0.082429 0.306437
vt 0.232662 0.798034
vt 0.173449 0.702793
vt 0.176063 0.306752
vt 0.235635 0.347510
vt 0.554785 0.799119
vt 0.492985 0.703869
vt 0.495599 0.307828
vt 0.557758 0.348595
vt 0.676493 0.348995
vt 0.673519 0.799519
vt 0.333315 0.798373
vt 0.336288 0.347849
vt 0.399646 0.703555
vt 0.402260 0.307514
vt 0.672362 0.974893
vt 0.553627 0.974493
vt 0.678706 0.013625
vt 0.559972 0.013225
vt 0.018080 0.011400
vt 0.084375 0.011623
vt 0.178008 0.011939
vt 0.237849 0.012140
vt 0.338502 0.012479
vt 0.404205 0.012700
vt 0.497545 0.013015
vn -0.990150 -0.011627 -0.139526
vn -0.489287 -0.072418 -0.869111
vn -0.511847 0.000180 -0.859077
vn -0.995479 -0.000809 -0.094980
vn -0.104527 0.082581 0.991088
vn -0.864135 0.041788 0.501522
vn -0.845311 -0.000184 0.534275
vn -0.097269 0.000814 0.995258
vn 0.097954 -0.082636 -0.991754
vn 0.847181 -0.044117 -0.529469
vn 0.867205 -0.000175 -0.497951
vn 0.105825 0.000777 -0.994384
vn 0.507872 0.071529 0.858458
vn 0.487729 0.000185 0.872995
vn 0.994892 0.008382 0.100592
vn 0.989362 -0.000837 0.145471
vn 0.000000 1.000000 0.000000
vn 0.000000 1.000000 0.000000
vn 0.000000 1.000000 0.000000
vn 0.000000 1.000000 0.000000
vn 0.000000 1.000000 0.000001
vn 0.000000 1.000000 0.000001
vn 0.000000 1.000000 0.000001
vn 0.000000 1.000000 0.000001
vn 0.000000 1.000000 -0.000000
vn 0.000000 1.000000 -0.000000
vn 0.000000 1.000000 -0.000000
vn 0.000000 1.000000 -0.000000
vn -0.477997 0.134495 -0.868003
vn 0.094235 0.152437 -0.983810
vn -0.987370 0.024261 -0.156562
vn -0.868893 -0.075793 0.489164
vn -0.106285 -0.152252 0.982610
vn 0.512260 -0.131503 0.848703
vn 0.996326 -0.013114 0.084636
vn 0.837196 0.083741 -0.540454
vn -0.996566 0.013774 -0.081648
vn -0.512849 0.142809 -0.846517
vn -0.484836 -0.000185 -0.874605
vn -0.988458 0.000835 -0.151494
vn -0.093471 -0.165622 0.981750
vn -0.835087 -0.091512 0.542453
vn -0.869497 0.000172 0.493938
vn -0.106757 -0.000768 0.994285
vn 0.106545 0.165403 -0.980454
vn 0.869642 0.082124 -0.486804
vn 0.842532 0.000183 -0.538646
vn 0.096232 -0.000813 -0.995359
vn 0.475629 -0.146330 0.867390
vn 0.514514 -0.000179 0.857482
vn 0.986777 -0.026963 0.159826
vn 0.995999 0.000801 0.089357
vn 0.000000 1.000000 0.000001
vn 0.000000 1.000000 0.000001
vn 0.000000 1.000000 0.000001
vn 0.000000 1.000000 0.000001
vn 0.000000 1.000000 0.000000
vn 0.000000 1.000000 0.000000
vn 0.000000 1.000000 0.000000
vn 0.000000 1.000000 0.000000
vn 0.000000 1.000000 -0.000000
vn 0.000000 1.000000 -0.000000
vn 0.000000 1.000000 -0.000000
vn 0.000000 1.000000 -0.000000
vn -0.509802 -0.094566 -0.855079
vn 0.105278 -0.109312 -0.988417
vn -0.995476 -0.010445 -0.094443
vn -0.843576 0.059030 0.533755
vn -0.096587 0.109410 0.989293
vn 0.485199 0.096118 0.869105
vn 0.989151 0.016149 0.146015
vn 0.866113 -0.054945 -0.496819
vn -0.986991 0.102670 -0.123722
vn -0.482612 0.050203 -0.874394
vn -0.519849 -0.000093 -0.854258
vn -0.993434 0.000428 -0.114406
vn -0.078629 0.008179 0.996870
vn -0.846086 0.088012 0.525731
vn -0.865118 0.000094 0.501569
vn -0.128684 -0.000414 0.991686
vn 0.125378 -0.013042 -0.992023
vn 0.860639 -0.089526 -0.501284
vn 0.848383 0.000091 -0.529382
vn 0.075549 -0.000399 -0.997142
vn 0.516675 -0.053746 0.854493
vn 0.480983 -0.000088 0.876730
vn 0.988096 -0.102785 0.114463
vn 0.992159 0.000406 0.124983
vn 0.000000 1.000000 0.000001
vn 0.000000 1.000000 0.000001
vn 0.000000 1.000000 0.000001
vn 0.000000 1.000000 0.000001
vn 0.000000 1.000000 -0.000001
vn 0.000000 1.000000 -0.000001
vn 0.000000 1.000000 -0.000001
vn 0.000000 1.000000 -0.000001
vn 0.000000 1.000000 0.000000
vn 0.000000 1.000000 0.000000
vn 0.000000 1.000000 0.000000
vn 0.000000 1.000000 0.000000
vn -0.477015 -0.065523 -0.876450
vn 0.133036 0.018274 -0.990943
vn -0.982974 -0.135022 -0.124621
vn -0.841391 -0.115575 0.527923
vn -0.071491 -0.009820 0.997393
vn 0.521727 0.071665 0.850097
vn 0.984411 0.135220 0.112477
vn 0.860377 0.118182 -0.495766
vn -0.987988 -0.021442 -0.153038
vn -0.480479 -0.121688 -0.868523
vn -0.517563 0.000203 -0.855645
vn -0.996556 -0.000908 -0.082917
vn -0.105978 0.137973 0.984750
vn -0.868021 0.068895 0.491724
vn -0.839259 -0.000208 0.543732
vn -0.095021 0.000930 0.995475
vn 0.095039 -0.138126 -0.985844
vn 0.839401 -0.075414 -0.538255
vn 0.872086 -0.000193 -0.489352
vn 0.107825 0.000868 -0.994170
vn 0.511532 0.119227 0.850952
vn 0.481472 0.000213 0.876462
vn 0.996054 0.012314 0.087889
vn 0.987359 -0.000955 0.158501
vn 0.000000 1.000000 0.000001
vn 0.000000 1.000000 0.000001
vn 0.000000 1.000000 0.000001
vn 0.000000 1.000000 0.000001
vn 0.000000 1.000000 0.000000
vn 0.000000 1.000000 0.000000
vn 0.000000 1.000000 0.000000
vn 0.000000 1.000000 0.000000
vn 0.000000 1.000000 0.000000
vn 0.000000 1.000000 0.000000
vn 0.000000 1.000000 0.000000
vn 0.000000 1.000000 0.000000
vn -0.470966 0.168723 -0.865866
vn 0.091990 0.190452 -0.977377
vn -0.985592 0.032350 -0.166015
vn -0.870935 -0.093986 0.482327
vn -0.106967 -0.190166 0.975907
vn 0.513752 -0.164091 0.842100
vn 0.996994 -0.014818 0.076042
vn 0.830905 0.106421 -0.546142
g Railing_Bottom_Left
f 3/1/1 4/2/2 18/3/3 19/4/4
f 7/5/5 8/6/6 20/7/7 21/8/8
f 11/9/9 12/10/10 24/11/11 17/12/12
f 17/12/12 18/13/3 4/14/2 11/9/9
f 8/6/6 3/1/1 19/4/4 20/7/7
f 14/15/13 7/5/5 21/8/8 22/16/14
f 16/17/15 14/15/13 22/16/14 23/18/16
f 12/10/10 16/17/15 23/18/16 24/11/11
f 4/2/17 3/1/18 8/6/19 7/5/20
f 11/9/21 14/15/22 16/17/23 12/10/24
f 11/9/25 4/14/26 7/19/27 14/20/28
f 1/21/29 18/13/3 17/12/12 10/22/30
f 19/4/4 18/3/3 1/23/29 2/24/31
f 20/7/7 19/4/4 2/24/31 5/25/32
f 21/8/8 20/7/7 5/25/32 6/26/33
f 22/16/14 21/8/8 6/26/33 13/27/34
f 23/18/16 22/16/14 13/27/34 15/28/35
f 24/11/11 23/18/16 15/28/35 9/29/36
f 17/12/12 24/11/11 9/29/36 10/22/30
f 27/30/37 28/31/38 42/32/39 43/33/40
f 31/34/41 32/35/42 44/36/43 45/37/44
f 35/38/45 36/39/46 48/40/47 41/41/48
f 41/41/48 42/42/39 28/43/38 35/38/45
f 32/35/42 27/30/37 43/33/40 44/36/43
f 38/44/49 31/34/41 45/37/44 46/45/50
f 40/46/51 38/44/49 46/45/50 47/47/52
f 36/39/46 40/46/51 47/47/52 48/40/47
f 28/31/53 27/30/54 32/35/55 31/34/56
f 35/38/57 38/44/58 40/46/59 36/39/60
f 35/38/61 28/43/62 31/48/63 38/49/64
f 25/50/65 42/42/39 41/41/48 34/51/66
f 43/33/40 42/32/39 25/52/65 26/53/67
f 44/36/43 43/33/40 26/53/67 29/54/68
f 45/37/44 44/36/43 29/54/68 30/55/69
f 46/45/50 45/37/44 30/55/69 37/56/70
f 47/47/52 46/45/50 37/56/70 39/57/71
f 48/40/47 47/47/52 39/57/71 33/58/72
f 41/41/48 48/40/47 33/58/72 34/51/66
f 51/59/73 52/60/74 66/61/75 67/62/76
f 55/63/77 56/64/78 68/65/79 69/66/80
f 59/67/81 60/68/82 72/69/83 65/70/84
f 65/70/84 66/71/75 52/72/74 59/67/81
f 56/64/78 51/59/73 67/62/76 68/65/79
f 62/73/85 55/63/77 69/66/80 70/74/86
f 64/75/87 62/73/85 70/74/86 71/76/88
f 60/68/82 64/75/87 71/76/88 72/69/83
f 52/60/89 51/59/90 56/64/91 55/63/92
f 59/67/93 62/73/94 64/75/95 60/68/96
f 59/67/97 52/72/98 55/77/99 62/78/100
f 49/79/101 66/71/75 65/70/84 58/80/102
f 67/62/76 66/61/75 49/81/101 50/82/103
f 68/65/79 67/62/76 50/82/103 53/83/104
f 69/66/80 68/65/79 53/83/104 54/84/105
f 70/74/86 69/66/80 54/84/105 61/85/106
f 71/76/88 70/74/86 61/85/106 63/86/107
f 72/69/83 71/76/88 63/86/107 57/87/108
f 65/70/84 72/69/83 57/87/108 58/80/102
f 75/88/109 76/89/110 90/90/111 91/91/112
f 79/92/113 80/93/114 92/94/115 93/95/116
f 83/96/117 84/97/118 96/98/119 89/99/120
f 89/99/120 90/100/111 76/101/110 83/96/117
f 80/93/114 75/88/109 91/91/112 92/94/115
f 86/102/121 79/92/113 93/95/116 94/103/122
f 88/104/123 86/102/121 94/103/122 95/105/124
f 84/97/118 88/104/123 95/105/124 96/98/119
f 76/89/125 75/88/126 80/93/127 79/92/128
f 83/96/129 86/102/130 88/104/131 84/97/132
f 83/96/133 76/101/134 79/106/135 86/107/136
f 73/108/137 90/100/111 89/99/120 82/109/138
f 91/91/112 90/90/111 73/110/137 74/111/139
f 92/94/115 91/91/112 74/111/139 77/112/140
f 93/95/116 92/94/115 77/112/140 78/113/141
f 94/103/122 93/95/116 78/113/141 85/114/142
f 95/105/124 94/103/122 85/114/142 87/115/143
f 96/98/119 95/105/124 87/115/143 81/116/144
f 89/99/120 96/98/119 81/116/144 82/109/138
