# This file uses centimeters as units for non-parametric coordinates.

v -3.048124 0.847490 -1.213347
v -3.048124 0.893300 -1.203283
v -3.048124 0.913995 -1.161192
v -3.048124 0.893989 -1.118770
v -3.048124 0.848348 -1.107961
v -3.048124 0.811441 -1.136905
v -3.048124 0.811059 -1.183806
v 3.048124 0.847490 -1.213347
v 3.048124 0.893300 -1.203283
v 3.048124 0.913995 -1.161192
v 3.048124 0.893989 -1.118770
v 3.048124 0.848348 -1.107961
v 3.048124 0.811441 -1.136905
v 3.048124 0.811059 -1.183806
v -2.317261 0.847490 -1.211964
v -2.317261 0.893301 -1.201900
v -2.317261 0.913995 -1.159809
v -2.317261 0.893989 -1.117386
v -2.317261 0.848348 -1.106577
v -2.317261 0.811441 -1.135521
v -2.317261 0.811059 -1.182423
v -2.248399 0.847490 -1.211834
v -2.248399 0.811059 -1.182292
v -2.248399 0.811441 -1.135391
v -2.248399 0.848348 -1.106447
v -2.248399 0.893989 -1.117256
v -2.248399 0.913995 -1.159678
v -2.248399 0.893301 -1.201769
v -0.790668 0.847490 -1.222771
v -0.790668 0.811059 -1.193230
v -0.790668 0.811441 -1.146328
v -0.790668 0.848348 -1.117384
v -0.790668 0.893989 -1.128193
v -0.790668 0.913995 -1.170616
v -0.790668 0.893301 -1.212707
v -0.742690 0.847490 -1.222680
v -0.742690 0.811059 -1.193139
v -0.742690 0.811441 -1.146238
v -0.742690 0.848348 -1.117294
v -0.742690 0.893989 -1.128103
v -0.742690 0.913995 -1.170525
v -0.742690 0.893301 -1.212616
v 0.736097 0.847490 -1.206185
v 0.736097 0.811059 -1.176644
v 0.736097 0.811441 -1.129742
v 0.736097 0.848348 -1.100798
v 0.736097 0.893989 -1.111607
v 0.736097 0.913995 -1.154030
v 0.736097 0.893301 -1.196121
v 0.802970 0.847490 -1.206058
v 0.802970 0.811059 -1.176517
v 0.802970 0.811441 -1.129616
v 0.802970 0.848348 -1.100672
v 0.802970 0.893989 -1.111481
v 0.802970 0.913995 -1.153903
v 0.802970 0.893301 -1.195994
v 2.304210 0.847490 -1.257423
v 2.304210 0.811059 -1.227882
v 2.304210 0.811441 -1.180980
v 2.304210 0.848348 -1.152036
v 2.304210 0.893989 -1.162845
v 2.304210 0.913995 -1.205268
v 2.304210 0.893301 -1.247359
v 2.363165 0.847490 -1.257311
v 2.363165 0.811059 -1.227770
v 2.363165 0.811441 -1.180869
v 2.363165 0.848348 -1.151925
v 2.363165 0.893989 -1.162734
v 2.363165 0.913995 -1.205156
v 2.363165 0.893301 -1.247247
v -1.519533 0.857453 -1.107187
v -1.519533 0.877459 -1.149609
v -1.519533 0.856765 -1.191700
v -1.519533 0.810954 -1.201764
v -1.519533 0.774523 -1.172223
v -1.519533 0.774905 -1.125322
v -1.519533 0.811813 -1.096378
v -0.003296 0.866401 -1.142186
v -0.003296 0.912041 -1.152995
v -0.003296 0.932047 -1.195417
v -0.003296 0.911353 -1.237508
v -0.003296 0.865542 -1.247572
v -0.003296 0.829112 -1.218031
v -0.003296 0.829493 -1.171130
v 1.553590 0.848348 -1.079101
v 1.553590 0.893989 -1.089911
v 1.553590 0.913995 -1.132333
v 1.553590 0.893301 -1.174424
v 1.553590 0.847490 -1.184488
v 1.553590 0.811059 -1.154947
v 1.553590 0.811441 -1.108045
vt 0.008657 0.121157
vt 0.016283 0.121182
vt 0.016150 0.132308
vt 0.008558 0.132344
vt 0.023922 0.121290
vt 0.023738 0.132402
vt 0.031559 0.121495
vt 0.031322 0.132645
vt 0.039175 0.121740
vt 0.038911 0.132941
vt 0.046772 0.121942
vt 0.046517 0.133161
vt 0.001043 0.121111
vt 0.000979 0.132435
vt 0.011986 0.002259
vt 0.019602 0.002461
vt 0.027221 0.002675
vt 0.034842 0.002897
vt 0.042462 0.003116
vt 0.050078 0.003325
vt 0.057691 0.003528
vt 0.054388 0.122094
vt 0.004373 0.002062
vt 0.007731 0.251011
vt 0.000117 0.250992
vt 0.054128 0.133203
vt 0.053459 0.250907
vt 0.045853 0.250866
vt 0.038245 0.250844
vt 0.030629 0.250867
vt 0.022997 0.250927
vt 0.015360 0.250987
vt 0.001551 0.369178
vt 0.009136 0.369372
vt 0.009094 0.377178
vt 0.001475 0.376984
vt 0.039457 0.368672
vt 0.047097 0.368522
vt 0.047201 0.376316
vt 0.039628 0.376463
vt 0.031839 0.369016
vt 0.032043 0.376773
vt 0.024256 0.369344
vt 0.024415 0.377097
vt 0.016694 0.369476
vt 0.016752 0.377248
vt 0.010985 0.496356
vt 0.003386 0.496486
vt 0.054790 0.376374
vt 0.056644 0.495942
vt 0.049032 0.496103
vt 0.041409 0.496233
vt 0.033788 0.496292
vt 0.026182 0.496294
vt 0.018582 0.496297
vt 0.003921 0.615693
vt 0.011545 0.615471
vt 0.011530 0.626317
vt 0.003916 0.626433
vt 0.042007 0.616103
vt 0.049596 0.616016
vt 0.049635 0.626830
vt 0.041979 0.626887
vt 0.034420 0.615941
vt 0.034323 0.626777
vt 0.026818 0.615663
vt 0.026700 0.626542
vt 0.019190 0.615461
vt 0.019112 0.626346
vt 0.009948 0.747977
vt 0.002339 0.747722
vt 0.057262 0.626678
vt 0.055502 0.748335
vt 0.047918 0.747988
vt 0.040338 0.747746
vt 0.032755 0.747721
vt 0.025170 0.747869
vt 0.017567 0.748012
vt 0.000878 0.869758
vt 0.008497 0.869967
vt 0.008497 0.879377
vt 0.000915 0.879522
vt 0.038980 0.869695
vt 0.046598 0.869801
vt 0.046539 0.879416
vt 0.038956 0.879439
vt 0.031367 0.869720
vt 0.031370 0.879426
vt 0.023749 0.869837
vt 0.023774 0.879395
vt 0.016123 0.869959
vt 0.016149 0.879368
vt 0.009863 0.998126
vt 0.002262 0.998578
vt 0.054143 0.879297
vt 0.055452 0.997892
vt 0.047875 0.998554
vt 0.040286 0.999002
vt 0.032681 0.998971
vt 0.025086 0.998558
vt 0.017483 0.998150
vt 0.054727 0.368596
vt 0.057174 0.615738
vt 0.054258 0.870063
vn 0.001850 0.214576 -0.976706
vn 0.001850 0.214576 -0.976706
vn 0.001850 0.214576 -0.976706
vn 0.001850 0.214576 -0.976705
vn 0.000836 0.897403 -0.441212
vn 0.000836 0.897403 -0.441212
vn 0.000836 0.897403 -0.441212
vn 0.000836 0.897403 -0.441212
vn -0.000807 0.904472 0.426534
vn -0.000807 0.904471 0.426534
vn -0.000807 0.904471 0.426534
vn -0.000807 0.904471 0.426533
vn -0.001843 0.230452 0.973082
vn -0.001843 0.230452 0.973082
vn -0.001843 0.230452 0.973082
vn -0.001843 0.230452 0.973082
vn -0.001490 -0.617102 0.786882
vn -0.001490 -0.617102 0.786882
vn -0.001490 -0.617102 0.786882
vn -0.001490 -0.617102 0.786882
vn 0.001469 -0.629836 -0.776727
vn 0.001469 -0.629836 -0.776727
vn 0.001469 -0.629836 -0.776727
vn 0.001469 -0.629836 -0.776727
vn 0.001849 0.214574 -0.976706
vn 0.001849 0.214574 -0.976706
vn 0.001849 0.214574 -0.976706
vn 0.001849 0.214574 -0.976706
vn 0.000835 0.897403 -0.441211
vn 0.000835 0.897403 -0.441211
vn 0.000835 0.897403 -0.441211
vn 0.000835 0.897403 -0.441211
vn -0.000807 0.904471 0.426535
vn -0.000807 0.904471 0.426535
vn -0.000807 0.904471 0.426535
vn -0.000807 0.904471 0.426535
vn -0.001842 0.230452 0.973082
vn -0.001842 0.230452 0.973082
vn -0.001842 0.230452 0.973082
vn -0.001842 0.230452 0.973082
vn -0.001489 -0.617102 0.786882
vn -0.001489 -0.617102 0.786882
vn -0.001489 -0.617102 0.786882
vn -0.001489 -0.617102 0.786882
vn -0.000015 -0.999967 0.008143
vn -0.000015 -0.999967 0.008143
vn -0.000015 -0.999967 0.008143
vn -0.000015 -0.999967 0.008143
vn 0.001470 -0.629837 -0.776726
vn 0.001470 -0.629837 -0.776726
vn 0.001470 -0.629837 -0.776726
vn 0.001470 -0.629837 -0.776726
vn -0.020837 -0.629700 -0.776559
vn -0.020837 -0.629700 -0.776559
vn -0.020837 -0.629700 -0.776559
vn -0.020837 -0.629700 -0.776559
vn -0.050174 -0.998707 0.008132
vn -0.050174 -0.998707 0.008132
vn -0.050174 -0.998707 0.008132
vn -0.050174 -0.998707 0.008132
vn -0.041767 -0.616565 0.786195
vn -0.041767 -0.616565 0.786195
vn -0.041767 -0.616565 0.786195
vn -0.041767 -0.616565 0.786195
vn -0.001891 0.230452 0.973082
vn -0.001891 0.230452 0.973082
vn -0.001891 0.230452 0.973082
vn -0.001891 0.230452 0.973082
vn 0.039415 0.903769 0.426203
vn 0.039415 0.903769 0.426203
vn 0.039415 0.903769 0.426203
vn 0.039415 0.903769 0.426203
vn 0.051012 0.896234 -0.440638
vn 0.051012 0.896234 -0.440638
vn 0.051012 0.896234 -0.440638
vn 0.051012 0.896234 -0.440638
vn 0.024242 0.214514 -0.976420
vn 0.024242 0.214514 -0.976420
vn 0.024242 0.214514 -0.976420
vn 0.024242 0.214514 -0.976420
vn 0.001470 -0.629836 -0.776727
vn 0.001470 -0.629836 -0.776727
vn 0.001470 -0.629836 -0.776727
vn 0.001470 -0.629836 -0.776727
vn -0.001490 -0.617101 0.786882
vn -0.001490 -0.617101 0.786882
vn -0.001490 -0.617101 0.786882
vn -0.001490 -0.617101 0.786882
vn -0.001842 0.230453 0.973082
vn -0.001842 0.230453 0.973082
vn -0.001842 0.230453 0.973082
vn -0.001842 0.230453 0.973082
vn -0.000806 0.904471 0.426535
vn -0.000806 0.904471 0.426535
vn -0.000806 0.904471 0.426535
vn -0.000806 0.904471 0.426535
vn 0.000834 0.897403 -0.441211
vn 0.000834 0.897403 -0.441211
vn 0.000834 0.897403 -0.441212
vn 0.000834 0.897403 -0.441212
vn 0.001847 0.214576 -0.976706
vn 0.001847 0.214576 -0.976705
vn 0.001847 0.214576 -0.976706
vn 0.001847 0.214576 -0.976706
vn -0.010770 -0.629799 -0.776683
vn -0.010770 -0.629799 -0.776683
vn -0.010770 -0.629799 -0.776683
vn -0.010770 -0.629799 -0.776683
vn 0.024681 -0.999662 0.008141
vn 0.024681 -0.999662 0.008141
vn 0.024681 -0.999662 0.008141
vn 0.024681 -0.999662 0.008141
vn 0.041522 -0.616570 0.786204
vn 0.041522 -0.616570 0.786204
vn 0.041522 -0.616570 0.786204
vn 0.041522 -0.616570 0.786204
vn 0.027123 0.230370 0.972725
vn 0.027123 0.230370 0.972725
vn 0.027123 0.230370 0.972725
vn 0.027123 0.230370 0.972725
vn -0.007723 0.904443 0.426524
vn -0.007723 0.904443 0.426524
vn -0.007723 0.904443 0.426524
vn -0.007723 0.904443 0.426524
vn -0.036739 0.896798 -0.440913
vn -0.036739 0.896798 -0.440913
vn -0.036739 0.896798 -0.440913
vn -0.036739 0.896798 -0.440913
vn -0.038092 0.214420 -0.975999
vn -0.038092 0.214420 -0.975999
vn -0.038092 0.214420 -0.975999
vn -0.038092 0.214420 -0.975999
vn 0.001470 -0.629836 -0.776727
vn 0.001470 -0.629836 -0.776727
vn 0.001470 -0.629836 -0.776727
vn 0.001470 -0.629836 -0.776727
vn -0.001489 -0.617100 0.786884
vn -0.001489 -0.617100 0.786884
vn -0.001489 -0.617100 0.786884
vn -0.001489 -0.617100 0.786884
vn -0.001842 0.230455 0.973081
vn -0.001842 0.230455 0.973081
vn -0.001842 0.230455 0.973081
vn -0.001842 0.230455 0.973081
vn -0.000807 0.904470 0.426536
vn -0.000807 0.904470 0.426536
vn -0.000807 0.904470 0.426536
vn -0.000807 0.904470 0.426536
vn 0.000836 0.897404 -0.441210
vn 0.000836 0.897404 -0.441210
vn 0.000836 0.897404 -0.441210
vn 0.000836 0.897404 -0.441210
vn 0.001849 0.214575 -0.976706
vn 0.001849 0.214575 -0.976706
vn 0.001849 0.214575 -0.976706
vn 0.001849 0.214575 -0.976706
vn 0.022315 -0.629680 -0.776534
vn 0.022315 -0.629680 -0.776534
vn 0.022315 -0.629680 -0.776534
vn 0.022315 -0.629680 -0.776534
vn -0.000234 -0.999967 0.008143
vn -0.000234 -0.999967 0.008143
vn -0.000234 -0.999967 0.008143
vn -0.000234 -0.999967 0.008143
vn -0.022607 -0.616943 0.786683
vn -0.022607 -0.616943 0.786683
vn -0.022607 -0.616943 0.786683
vn -0.022607 -0.616943 0.786683
vn -0.027952 0.230366 0.972702
vn -0.027952 0.230366 0.972703
vn -0.027952 0.230366 0.972703
vn -0.027952 0.230366 0.972702
vn -0.012256 0.904402 0.426506
vn -0.012256 0.904402 0.426506
vn -0.012256 0.904402 0.426506
vn -0.012256 0.904402 0.426506
vn 0.012678 0.897332 -0.441175
vn 0.012678 0.897332 -0.441175
vn 0.012678 0.897332 -0.441175
vn 0.012678 0.897332 -0.441175
vn 0.028056 0.214490 -0.976323
vn 0.028056 0.214490 -0.976323
vn 0.028056 0.214490 -0.976323
vn 0.028056 0.214490 -0.976323
vn 0.001470 -0.629835 -0.776728
vn 0.001470 -0.629835 -0.776728
vn 0.001470 -0.629835 -0.776728
vn 0.001470 -0.629835 -0.776728
vn -0.001489 -0.617098 0.786885
vn -0.001489 -0.617099 0.786885
vn -0.001489 -0.617098 0.786885
vn -0.001489 -0.617099 0.786885
vn -0.001842 0.230455 0.973081
vn -0.001842 0.230455 0.973081
vn -0.001842 0.230455 0.973081
vn -0.001842 0.230455 0.973081
vn -0.000807 0.904470 0.426537
vn -0.000807 0.904470 0.426537
vn -0.000807 0.904470 0.426537
vn -0.000807 0.904470 0.426537
vn 0.000835 0.897403 -0.441211
vn 0.000835 0.897403 -0.441211
vn 0.000835 0.897403 -0.441211
vn 0.000835 0.897403 -0.441211
vn 0.001848 0.214575 -0.976706
vn 0.001848 0.214575 -0.976706
vn 0.001848 0.214575 -0.976706
vn 0.001848 0.214575 -0.976706
vn 0.049792 -0.629057 -0.775763
vn 0.049792 -0.629057 -0.775763
vn 0.049792 -0.629057 -0.775763
vn 0.049792 -0.629057 -0.775763
vn -0.000523 -0.999967 0.008143
vn -0.000523 -0.999967 0.008143
vn -0.000523 -0.999967 0.008143
vn -0.000523 -0.999967 0.008143
vn -0.050442 -0.616315 0.785882
vn -0.050442 -0.616315 0.785882
vn -0.050442 -0.616315 0.785882
vn -0.050442 -0.616315 0.785882
vn -0.062336 0.230005 0.971191
vn -0.062336 0.230005 0.971191
vn -0.062336 0.230005 0.971191
vn -0.062336 0.230005 0.971191
vn -0.027367 0.904132 0.426377
vn -0.027367 0.904131 0.426377
vn -0.027367 0.904131 0.426377
vn -0.027367 0.904132 0.426377
vn 0.028308 0.897044 -0.441034
vn 0.028308 0.897044 -0.441034
vn 0.028308 0.897044 -0.441034
vn 0.028308 0.897044 -0.441034
vn 0.062567 0.214159 -0.974793
vn 0.062567 0.214159 -0.974793
vn 0.062567 0.214159 -0.974793
vn 0.062567 0.214159 -0.974793
vn -0.033027 0.903978 0.426302
vn -0.033027 0.903978 0.426302
vn -0.033027 0.903978 0.426302
vn -0.033027 0.903978 0.426302
vn -0.057604 0.895913 -0.440480
vn -0.057604 0.895913 -0.440480
vn -0.057604 0.895913 -0.440480
vn -0.057604 0.895913 -0.440480
vn -0.038876 0.214415 -0.975969
vn -0.038876 0.214415 -0.975969
vn -0.038876 0.214415 -0.975969
vn -0.038876 0.214415 -0.975969
vn 0.009185 -0.629809 -0.776696
vn 0.009185 -0.629809 -0.776696
vn 0.009185 -0.629809 -0.776696
vn 0.009185 -0.629809 -0.776696
vn 0.050296 -0.998701 0.008134
vn 0.050296 -0.998701 0.008134
vn 0.050296 -0.998701 0.008134
vn 0.050296 -0.998701 0.008134
vn 0.053535 -0.616218 0.785754
vn 0.053535 -0.616218 0.785754
vn 0.053535 -0.616218 0.785754
vn 0.053535 -0.616218 0.785754
vn 0.016491 0.230421 0.972951
vn 0.016491 0.230421 0.972951
vn 0.016491 0.230421 0.972951
vn 0.016491 0.230421 0.972951
vn -0.048783 0.230181 0.971924
vn -0.048783 0.230181 0.971924
vn -0.048783 0.230181 0.971924
vn -0.048783 0.230181 0.971924
vn -0.001792 0.904468 0.426537
vn -0.001792 0.904468 0.426537
vn -0.001792 0.904468 0.426537
vn -0.001792 0.904468 0.426537
vn 0.046557 0.896431 -0.440732
vn 0.046556 0.896431 -0.440732
vn 0.046557 0.896431 -0.440732
vn 0.046556 0.896431 -0.440732
vn 0.059802 0.214191 -0.974959
vn 0.059802 0.214191 -0.974959
vn 0.059802 0.214191 -0.974959
vn 0.059802 0.214191 -0.974959
vn 0.028088 -0.629587 -0.776422
vn 0.028088 -0.629587 -0.776422
vn 0.028088 -0.629587 -0.776422
vn 0.028088 -0.629587 -0.776422
vn -0.024863 -0.999658 0.008139
vn -0.024863 -0.999658 0.008139
vn -0.024863 -0.999658 0.008139
vn -0.024863 -0.999658 0.008139
vn -0.059009 -0.616025 0.785513
vn -0.059009 -0.616025 0.785513
vn -0.059009 -0.616025 0.785513
vn -0.059009 -0.616025 0.785513
vn 0.094131 0.229433 0.968762
vn 0.094131 0.229433 0.968762
vn 0.094131 0.229433 0.968762
vn 0.094131 0.229433 0.968762
vn 0.041409 0.903694 0.426172
vn 0.041409 0.903694 0.426172
vn 0.041409 0.903694 0.426172
vn 0.041409 0.903694 0.426172
vn -0.042831 0.896580 -0.440806
vn -0.042831 0.896580 -0.440806
vn -0.042831 0.896580 -0.440806
vn -0.042831 0.896580 -0.440806
vn -0.094478 0.213614 -0.972339
vn -0.094478 0.213614 -0.972339
vn -0.094478 0.213614 -0.972339
vn -0.094478 0.213614 -0.972339
vn -0.075258 -0.628050 -0.774525
vn -0.075258 -0.628050 -0.774525
vn -0.075258 -0.628050 -0.774525
vn -0.075258 -0.628050 -0.774525
vn 0.000791 -0.999967 0.008143
vn 0.000791 -0.999967 0.008143
vn 0.000791 -0.999967 0.008143
vn 0.000791 -0.999967 0.008143
vn 0.076236 -0.615305 0.784594
vn 0.076236 -0.615305 0.784594
vn 0.076236 -0.615305 0.784594
vn 0.076236 -0.615305 0.784594
vn -0.000015 -0.999967 0.008144
vn -0.000015 -0.999967 0.008144
vn -0.000015 -0.999967 0.008144
vn -0.000015 -0.999967 0.008144
vn -0.000015 -0.999967 0.008143
vn -0.000015 -0.999967 0.008143
vn -0.000015 -0.999967 0.008143
vn -0.000015 -0.999967 0.008143
vn -0.000015 -0.999967 0.008141
vn -0.000015 -0.999967 0.008141
vn -0.000015 -0.999967 0.008141
vn -0.000015 -0.999967 0.008141
vn -0.000015 -0.999967 0.008143
vn -0.000015 -0.999967 0.008143
vn -0.000015 -0.999967 0.008143
vn -0.000015 -0.999967 0.008143
g Railing_Top_Left Railing_Top polySurface50 polySurface45 polySurface34 polySurface25 polySurface21 polySurface19 pCylinder3
f 15/1/1 16/2/2 28/3/3 22/4/4
f 16/2/5 17/5/6 27/6/7 28/3/8
f 17/5/9 18/7/10 26/8/11 27/6/12
f 18/7/13 19/9/14 25/10/15 26/8/16
f 19/9/17 20/11/18 24/12/19 25/10/20
f 21/13/21 15/1/22 22/4/23 23/14/24
f 1/15/25 2/16/26 16/2/27 15/1/28
f 2/16/29 3/17/30 17/5/31 16/2/32
f 3/17/33 4/18/34 18/7/35 17/5/36
f 4/18/37 5/19/38 19/9/39 18/7/40
f 5/19/41 6/20/42 20/11/43 19/9/44
f 6/20/45 7/21/46 21/22/47 20/11/48
f 7/23/49 1/15/50 15/1/51 21/13/52
f 23/14/53 22/4/54 74/24/55 75/25/56
f 24/12/57 23/26/58 75/27/59 76/28/60
f 25/10/61 24/12/62 76/28/63 77/29/64
f 26/8/65 25/10/66 77/29/67 71/30/68
f 27/6/69 26/8/70 71/30/71 72/31/72
f 28/3/73 27/6/74 72/31/75 73/32/76
f 22/4/77 28/3/78 73/32/79 74/24/80
f 30/33/81 29/34/82 36/35/83 37/36/84
f 32/37/85 31/38/86 38/39/87 39/40/88
f 33/41/89 32/37/90 39/40/91 40/42/92
f 34/43/93 33/41/94 40/42/95 41/44/96
f 35/45/97 34/43/98 41/44/99 42/46/100
f 29/34/101 35/45/102 42/46/103 36/35/104
f 37/36/105 36/35/106 82/47/107 83/48/108
f 38/39/109 37/49/110 83/50/111 84/51/112
f 39/40/113 38/39/114 84/51/115 78/52/116
f 40/42/117 39/40/118 78/52/119 79/53/120
f 41/44/121 40/42/122 79/53/123 80/54/124
f 42/46/125 41/44/126 80/54/127 81/55/128
f 36/35/129 42/46/130 81/55/131 82/47/132
f 44/56/133 43/57/134 50/58/135 51/59/136
f 46/60/137 45/61/138 52/62/139 53/63/140
f 47/64/141 46/60/142 53/63/143 54/65/144
f 48/66/145 47/64/146 54/65/147 55/67/148
f 49/68/149 48/66/150 55/67/151 56/69/152
f 43/57/153 49/68/154 56/69/155 50/58/156
f 51/59/157 50/58/158 89/70/159 90/71/160
f 52/62/161 51/72/162 90/73/163 91/74/164
f 53/63/165 52/62/166 91/74/167 85/75/168
f 54/65/169 53/63/170 85/75/171 86/76/172
f 55/67/173 54/65/174 86/76/175 87/77/176
f 56/69/177 55/67/178 87/77/179 88/78/180
f 50/58/181 56/69/182 88/78/183 89/70/184
f 58/79/185 57/80/186 64/81/187 65/82/188
f 60/83/189 59/84/190 66/85/191 67/86/192
f 61/87/193 60/83/194 67/86/195 68/88/196
f 62/89/197 61/87/198 68/88/199 69/90/200
f 63/91/201 62/89/202 69/90/203 70/92/204
f 57/80/205 63/91/206 70/92/207 64/81/208
f 65/82/209 64/81/210 8/93/211 14/94/212
f 66/85/213 65/95/214 14/96/215 13/97/216
f 67/86/217 66/85/218 13/97/219 12/98/220
f 68/88/221 67/86/222 12/98/223 11/99/224
f 69/90/225 68/88/226 11/99/227 10/100/228
f 70/92/229 69/90/230 10/100/231 9/101/232
f 64/81/233 70/92/234 9/101/235 8/93/236
f 72/31/237 71/30/238 33/41/239 34/43/240
f 73/32/241 72/31/242 34/43/243 35/45/244
f 74/24/245 73/32/246 35/45/247 29/34/248
f 75/25/249 74/24/250 29/34/251 30/33/252
f 76/28/253 75/27/254 30/102/255 31/38/256
f 77/29/257 76/28/258 31/38/259 32/37/260
f 71/30/261 77/29/262 32/37/263 33/41/264
f 79/53/265 78/52/266 46/60/267 47/64/268
f 80/54/269 79/53/270 47/64/271 48/66/272
f 81/55/273 80/54/274 48/66/275 49/68/276
f 82/47/277 81/55/278 49/68/279 43/57/280
f 83/48/281 82/47/282 43/57/283 44/56/284
f 84/51/285 83/50/286 44/103/287 45/61/288
f 78/52/289 84/51/290 45/61/291 46/60/292
f 86/76/293 85/75/294 60/83/295 61/87/296
f 87/77/297 86/76/298 61/87/299 62/89/300
f 88/78/301 87/77/302 62/89/303 63/91/304
f 89/70/305 88/78/306 63/91/307 57/80/308
f 90/71/309 89/70/310 57/80/311 58/79/312
f 91/74/313 90/73/314 58/104/315 59/84/316
f 85/75/317 91/74/318 59/84/319 60/83/320
f 65/95/321 66/85/322 59/84/323 58/104/324
f 51/72/325 52/62/326 45/61/327 44/103/328
f 37/49/329 38/39/330 31/38/331 30/102/332
f 24/12/333 20/11/334 21/22/335 23/26/336
